<svg id="doorSvg" width="1725" height="495" viewBox="0 0 1725 495">
      <defs>
          <!-- Clip Paths for Door Inner Areas -->
          <clipPath id="left-door-clip">
              <rect id="left-clip-rect" x="22.5" y="22.5" width="780" height="450"></rect>
          </clipPath>
          <clipPath id="right-door-clip">
              <rect id="right-clip-rect" x="22.5" y="22.5" width="780" height="450"></rect>
          </clipPath>
      </defs>

      <!-- Left Door Group -->
      <g id="left-door-group" class="door-group" transform="translate(0, 0)" style="display: block;">
          <!-- Frame -->
          <rect id="left-door-frame" x="0" y="0" width="825" height="495" fill="none" stroke="black" stroke-width="45"></rect>
          <!-- Sectors (Clipped) -->
          <g id="left-sectors-group" clip-path="url(#left-door-clip)"><path d="M 412.5,615 L -229.3478496321735,315.70143234619945 A 708.200744617698,708.200744617698 0 0 1 -206.90632785343303,271.65746594372064 Z" fill="black"></path><path d="M 412.5,615 L -188.08829316960203,239.71078248278167 A 708.200744617698,708.200744617698 0 0 1 -160.44643782470973,198.730046651169 Z" fill="black"></path><path d="M 412.5,615 L -137.87534858046365,169.31483045540426 A 708.200744617698,708.200744617698 0 0 1 -105.4452360656062,132.0082535756896 Z" fill="black"></path><path d="M 412.5,615 L -79.4575752139786,105.56301776702111 A 708.200744617698,708.200744617698 0 0 1 -42.722663811037364,72.48675497289003 Z" fill="black"></path><path d="M 412.5,615 L -13.705847518397832,49.40573710637227 A 708.200744617698,708.200744617698 0 0 1 26.786229854493342,21.052879292103057 Z" fill="black"></path><path d="M 412.5,615 L 58.39962769115084,1.6801641820180748 A 708.200744617698,708.200744617698 0 0 1 102.04522742506111,-21.526612847023785 Z" fill="black"></path><path d="M 412.5,615 L 135.78392385858274,-36.90222263922317 A 708.200744617698,708.200744617698 0 0 1 181.93239058963184,-54.616959289301235 Z" fill="black"></path><path d="M 412.5,615 L 217.29341936594759,-65.76624883598856 A 708.200744617698,708.200744617698 0 0 1 265.2567857481381,-77.72485918569589 Z" fill="black"></path><path d="M 412.5,615 L 301.712995374637,-84.48161825969498 A 708.200744617698,708.200744617698 0 0 1 350.77623808839974,-90.50582697277707 Z" fill="black"></path><path d="M 412.5,615 L 387.7841504485056,-92.76932785902056 A 708.200744617698,708.200744617698 0 0 1 437.2158495514939,-92.76932785902056 Z" fill="black"></path><path d="M 412.5,615 L 474.2237619115997,-90.50582697277707 A 708.200744617698,708.200744617698 0 0 1 523.2870046253624,-84.4816182596951 Z" fill="black"></path><path d="M 412.5,615 L 559.7432142518614,-77.724859185696 A 708.200744617698,708.200744617698 0 0 1 607.7065806340519,-65.76624883598868 Z" fill="black"></path><path d="M 412.5,615 L 643.0676094103676,-54.61695928930146 A 708.200744617698,708.200744617698 0 0 1 689.2160761414168,-36.90222263922328 Z" fill="black"></path><path d="M 412.5,615 L 722.9547725749385,-21.526612847024012 A 708.200744617698,708.200744617698 0 0 1 766.6003723088486,1.6801641820178475 Z" fill="black"></path><path d="M 412.5,615 L 798.2137701455063,21.05287929210283 A 708.200744617698,708.200744617698 0 0 1 838.7058475183974,49.40573710637193 Z" fill="black"></path><path d="M 412.5,615 L 867.7226638110369,72.48675497288957 A 708.200744617698,708.200744617698 0 0 1 904.4575752139781,105.56301776702071 Z" fill="black"></path><path d="M 412.5,615 L 930.4452360656059,132.0082535756892 A 708.200744617698,708.200744617698 0 0 1 962.8753485804632,169.3148304554038 Z" fill="black"></path><path d="M 412.5,615 L 985.4464378247094,198.7300466511686 A 708.200744617698,708.200744617698 0 0 1 1013.0882931696017,239.7107824827811 Z" fill="black"></path><path d="M 412.5,615 L 1031.9063278534327,271.6574659437202 A 708.200744617698,708.200744617698 0 0 1 1054.3478496321732,315.7014323461989 Z" fill="black"></path></g>
          <!-- Vanishing Point -->
          <circle id="left-vp" cx="412.5" cy="615" r="1" fill="blue"></circle>
      </g>

      <!-- Right Door Group -->
      <g id="right-door-group" class="door-group grabbing" transform="translate(90, 0)" style="display: block;">
           <!-- Frame -->
          <rect id="right-door-frame" x="0" y="0" width="825" height="495" fill="none" stroke="black" stroke-width="45"></rect>
          <!-- Sectors (Clipped) -->
          <g id="right-sectors-group" clip-path="url(#right-door-clip)"><path d="M 412.5,615 L -236.96262753870622,332.6056124715266 A 708.200744617698,708.200744617698 0 0 1 -209.87893356997915,277.07581068328756 Z" fill="black"></path><path d="M 412.5,615 L -191.3403992865243,244.96612740648624 A 708.200744617698,708.200744617698 0 0 1 -156.79202725515813,193.74605950712572 Z" fill="black"></path><path d="M 412.5,615 L -133.96510452050393,164.52893076418707 A 708.200744617698,708.200744617698 0 0 1 -92.62449918989859,118.61553711340241 Z" fill="black"></path><path d="M 412.5,615 L -65.95348808983528,92.85964108131645 A 708.200744617698,708.200744617698 0 0 1 -18.62529731850941,53.14657366080894 Z" fill="black"></path><path d="M 412.5,615 L 11.370681253725763,31.35321955894267 A 708.200744617698,708.200744617698 0 0 1 63.765268067427485,-1.386551946892041 Z" fill="black"></path><path d="M 412.5,615 L 96.50237650884583,-18.793181270518744 A 708.200744617698,708.200744617698 0 0 1 152.94355833055374,-43.92241445025775 Z" fill="black"></path><path d="M 412.5,615 L 187.7846060632518,-56.60351875560775 A 708.200744617698,708.200744617698 0 0 1 247.17381948969916,-73.63310166948645 Z" fill="black"></path><path d="M 412.5,615 L 283.4406651506646,-81.34185768579857 A 708.200744617698,708.200744617698 0 0 1 344.6219666967346,-89.94032887326193 Z" fill="black"></path><path d="M 412.5,615 L 381.6087173881021,-92.52669443325863 A 708.200744617698,708.200744617698 0 0 1 443.39128261189956,-92.52669443325851 Z" fill="black"></path><path d="M 412.5,615 L 480.3780333032671,-89.94032887326182 A 708.200744617698,708.200744617698 0 0 1 541.5593348493371,-81.34185768579835 Z" fill="black"></path><path d="M 412.5,615 L 577.8261805103025,-73.63310166948611 A 708.200744617698,708.200744617698 0 0 1 637.2153939367497,-56.60351875560718 Z" fill="black"></path><path d="M 412.5,615 L 672.0564416694478,-43.922414450257065 A 708.200744617698,708.200744617698 0 0 1 728.4976234911558,-18.793181270517948 Z" fill="black"></path><path d="M 412.5,615 L 761.2347319325738,-1.386551946891359 A 708.200744617698,708.200744617698 0 0 1 813.6293187462754,31.35321955894358 Z" fill="black"></path><path d="M 412.5,615 L 843.6252973185105,53.14657366080985 A 708.200744617698,708.200744617698 0 0 1 890.9534880898364,92.85964108131736 Z" fill="black"></path><path d="M 412.5,615 L 917.6244991898994,118.61553711340326 A 708.200744617698,708.200744617698 0 0 1 958.9651045205047,164.52893076418798 Z" fill="black"></path><path d="M 412.5,615 L 981.7920272551588,193.74605950712652 A 708.200744617698,708.200744617698 0 0 1 1016.3403992865249,244.96612740648715 Z" fill="black"></path><path d="M 412.5,615 L 1034.8789335699796,277.0758106832883 A 708.200744617698,708.200744617698 0 0 1 1061.9626275387068,332.6056124715275 Z" fill="black"></path></g>
          <!-- Vanishing Point -->
          <circle id="right-vp" cx="412.5" cy="615" r="1" fill="blue"></circle>
      </g>
  </svg>