  <svg id="doorSvg" width="3170.896" height="1021.136" viewBox="0 0 3170.896 1021.136">
      <defs>
          <!-- Clip Paths for Door Inner Areas -->
          <clipPath id="left-door-clip">
              <rect id="left-clip-rect" x="40.308" y="40.308" width="1397.344" height="806.16"></rect>
          </clipPath>
          <clipPath id="right-door-clip">
              <rect id="right-clip-rect" x="40.308" y="40.308" width="1397.344" height="806.16"></rect>
          </clipPath>
      </defs>

      <!-- Left Door Group -->
      <g id="left-door-group" class="door-group" transform="translate(53.744, 67.18)" style="display: block;">
          <!-- Frame -->
          <rect id="left-door-frame" x="0" y="0" width="1477.96" height="886.776" fill="none" stroke="black" stroke-width="80.616"></rect>
          <!-- Sectors (Clipped) -->
          <g id="left-sectors-group" clip-path="url(#left-door-clip)"><path d="M 738.98,1101.752 L -413.30445797304264,564.4329328741884 A 1271.4052272911188,1271.4052272911188 0 0 1 -373.01606754885506,485.3625145777846 Z" fill="black"></path><path d="M 738.98,1101.752 L -339.23278244756125,428.00987741163965 A 1271.4052272911188,1271.4052272911188 0 0 1 -289.60843561565775,354.43875771072044 Z" fill="black"></path><path d="M 738.98,1101.752 L -249.08743776457504,301.63076517834565 A 1271.4052272911188,1271.4052272911188 0 0 1 -190.86691923732246,234.65572001256874 Z" fill="black"></path><path d="M 738.98,1101.752 L -144.2122833830997,187.17961765088933 A 1271.4052272911188,1271.4052272911188 0 0 1 -78.26352699342954,127.7990906812172 Z" fill="black"></path><path d="M 738.98,1101.752 L -26.17076629783992,86.36263782556318 A 1271.4052272911188,1271.4052272911188 0 0 1 46.52308389510392,35.46185593897667 Z" fill="black"></path><path d="M 738.98,1101.752 L 103.27738635444041,0.682774661563144 A 1271.4052272911188,1271.4052272911188 0 0 1 181.63263247876455,-40.97944872289668 Z" fill="black"></path><path d="M 738.98,1101.752 L 242.20240077337928,-68.58268242627787 A 1271.4052272911188,1271.4052272911188 0 0 1 325.0509465836485,-100.38525951782412 Z" fill="black"></path><path d="M 738.98,1101.752 L 388.53322497756477,-120.40114501070457 A 1271.4052272911188,1271.4052272911188 0 0 1 474.6399894793656,-141.86997263522653 Z" fill="black"></path><path d="M 738.98,1101.752 L 540.0884034193602,-154.00011916714902 A 1271.4052272911188,1271.4052272911188 0 0 1 628.169733082187,-164.81514655354317 Z" fill="black"></path><path d="M 738.98,1101.752 L 694.6085974626105,-168.87872157887273 A 1271.4052272911188,1271.4052272911188 0 0 1 783.3514025373885,-168.87872157887273 Z" fill="black"></path><path d="M 738.98,1101.752 L 849.790266917812,-164.81514655354317 A 1271.4052272911188,1271.4052272911188 0 0 1 937.8715965806389,-154.00011916714902 Z" fill="black"></path><path d="M 738.98,1101.752 L 1003.3200105206336,-141.869972635227 A 1271.4052272911188,1271.4052272911188 0 0 1 1089.4267750224344,-120.4011450107048 Z" fill="black"></path><path d="M 738.98,1101.752 L 1152.9090534163506,-100.38525951782458 A 1271.4052272911188,1271.4052272911188 0 0 1 1235.7575992266197,-68.5826824262781 Z" fill="black"></path><path d="M 738.98,1101.752 L 1296.3273675212347,-40.97944872289713 A 1271.4052272911188,1271.4052272911188 0 0 1 1374.6826136455588,0.6827746615624619 Z" fill="black"></path><path d="M 738.98,1101.752 L 1431.4369161048953,35.46185593897599 A 1271.4052272911188,1271.4052272911188 0 0 1 1504.1307662978393,86.3626378255625 Z" fill="black"></path><path d="M 738.98,1101.752 L 1556.2235269934285,127.79909068121651 A 1271.4052272911188,1271.4052272911188 0 0 1 1622.172283383099,187.17961765088853 Z" fill="black"></path><path d="M 738.98,1101.752 L 1668.8269192373218,234.65572001256794 A 1271.4052272911188,1271.4052272911188 0 0 1 1727.0474377645744,301.63076517834486 Z" fill="black"></path><path d="M 738.98,1101.752 L 1767.568435615657,354.43875771071976 A 1271.4052272911188,1271.4052272911188 0 0 1 1817.1927824475608,428.0098774116386 Z" fill="black"></path><path d="M 738.98,1101.752 L 1850.9760675488549,485.3625145777838 A 1271.4052272911188,1271.4052272911188 0 0 1 1891.2644579730425,564.4329328741874 Z" fill="black"></path></g>
          <!-- Vanishing Point -->
          <circle id="left-vp" cx="738.98" cy="1101.752" r="1" fill="blue"></circle>
      </g>

      <!-- Right Door Group -->
      <g id="right-door-group" class="door-group" transform="translate(1617.6943999999999, 67.18)" style="display: block;">
           <!-- Frame -->
          <rect id="right-door-frame" x="0" y="0" width="1477.96" height="886.776" fill="none" stroke="black" stroke-width="80.616"></rect>
          <!-- Sectors (Clipped) -->
          <g id="right-sectors-group" clip-path="url(#right-door-clip)"><path d="M 738.98,1101.752 L -426.9749723132288,594.7803493909748 A 1271.4052272911188,1271.4052272911188 0 0 1 -378.3526708713107,495.08985795818376 Z" fill="black"></path><path d="M 738.98,1101.752 L -345.07116195815115,437.4445935680351 A 1271.4052272911188,1271.4052272911188 0 0 1 -283.047814582558,345.4911996124738 Z" fill="black"></path><path d="M 738.98,1101.752 L -242.06752882547835,293.0388257728184 A 1271.4052272911188,1271.4052272911188 0 0 1 -167.85034942236416,210.6122975123966 Z" fill="black"></path><path d="M 738.98,1101.752 L -119.96892146924176,164.3737400163327 A 1271.4052272911188,1271.4052272911188 0 0 1 -35.0024630148979,93.07841606485306 Z" fill="black"></path><path d="M 738.98,1101.752 L 18.848149603476827,53.953655838462055 A 1271.4052272911188,1271.4052272911188 0 0 1 112.91011164315069,-4.822781420588626 Z" fill="black"></path><path d="M 738.98,1101.752 L 171.681768006325,-36.07222542325576 A 1271.4052272911188,1271.4052272911188 0 0 1 273.0084245341224,-81.18575949583646 Z" fill="black"></path><path d="M 738.98,1101.752 L 335.55720120275504,-103.95165239298308 A 1271.4052272911188,1271.4052272911188 0 0 1 442.17634410672616,-134.52419965425543 Z" fill="black"></path><path d="M 738.98,1101.752 L 507.2848002911414,-148.36342923645793 A 1271.4052272911188,1271.4052272911188 0 0 1 617.1212092321377,-163.79992982973886 Z" fill="black"></path><path d="M 738.98,1101.752 L 683.5220828924772,-168.44313123507004 A 1271.4052272911188,1271.4052272911188 0 0 1 794.4379171075258,-168.4431312350698 Z" fill="black"></path><path d="M 738.98,1101.752 L 860.8387907678652,-163.7999298297384 A 1271.4052272911188,1271.4052272911188 0 0 1 970.6751997088616,-148.36342923645748 Z" fill="black"></path><path d="M 738.98,1101.752 L 1035.7836558932768,-134.52419965425474 A 1271.4052272911188,1271.4052272911188 0 0 1 1142.4027987972477,-103.95165239298194 Z" fill="black"></path><path d="M 738.98,1101.752 L 1204.9515754658805,-81.18575949583533 A 1271.4052272911188,1271.4052272911188 0 0 1 1306.2782319936778,-36.072225423254395 Z" fill="black"></path><path d="M 738.98,1101.752 L 1365.0498883568516,-4.822781420587262 A 1271.4052272911188,1271.4052272911188 0 0 1 1459.1118503965254,53.95365583846342 Z" fill="black"></path><path d="M 738.98,1101.752 L 1512.9624630148999,93.07841606485465 A 1271.4052272911188,1271.4052272911188 0 0 1 1597.9289214692435,164.3737400163344 Z" fill="black"></path><path d="M 738.98,1101.752 L 1645.8103494223658,210.6122975123982 A 1271.4052272911188,1271.4052272911188 0 0 1 1720.0275288254797,293.03882577282013 Z" fill="black"></path><path d="M 738.98,1101.752 L 1761.0078145825591,345.49119961247527 A 1271.4052272911188,1271.4052272911188 0 0 1 1823.031161958152,437.4445935680367 Z" fill="black"></path><path d="M 738.98,1101.752 L 1856.3126708713114,495.0898579581851 A 1271.4052272911188,1271.4052272911188 0 0 1 1904.9349723132295,594.7803493909764 Z" fill="black"></path></g>
          <!-- Vanishing Point -->
          <circle id="right-vp" cx="738.98" cy="1101.752" r="1" fill="blue"></circle>
      </g>
  </svg>
