<svg id="doorSvg" width="3170.896" height="1021.136" viewBox="0 0 3170.896 1021.136">
    <defs>
        <!-- Clip Paths for Door Inner Areas -->
        <clipPath id="left-door-clip">
            <rect id="left-clip-rect" x="40.308" y="40.308" width="1397.344" height="806.16"></rect>
        </clipPath>
        <clipPath id="right-door-clip">
            <rect id="right-clip-rect" x="40.308" y="40.308" width="1397.344" height="806.16"></rect>
        </clipPath>
    </defs>

    <!-- Left Door Group -->
    <g id="left-door-group" class="door-group" transform="translate(53.744, 67.18)" style="display: block;">
        <!-- Frame -->
        <rect id="left-door-frame" x="0" y="0" width="1477.96" height="886.776" fill="none" stroke="black" stroke-width="80.616"></rect>
        <!-- Sectors (Clipped) -->
        <g id="left-sectors-group" clip-path="url(#left-door-clip)"><path d="M 738.98,1101.752 L -410.8690276877178,565.568592667138 A 1268.7180272911187,1268.7180272911187 0 0 1 -370.66578947183007,486.6652949893106 Z" fill="black"></path><path d="M 738.98,1101.752 L -336.95390760356963,429.43387645848713 A 1268.7180272911187,1268.7180272911187 0 0 1 -287.43444514837324,356.0182542406808 Z" fill="black"></path><path d="M 738.98,1101.752 L -246.99909113694787,303.32187493317485 A 1268.7180272911187,1268.7180272911187 0 0 1 -188.90162557033136,236.48838600572867 Z" fill="black"></path><path d="M 738.98,1101.752 L -142.34559741000226,189.1126275623593 A 1268.7180272911187,1268.7180272911187 0 0 1 -76.5362281286798,129.85760530876655 Z" fill="black"></path><path d="M 738.98,1101.752 L -24.553568967625665,88.50873116816229 A 1268.7180272911187,1268.7180272911187 0 0 1 47.986637909996375,37.7155314891595 Z" fill="black"></path><path d="M 738.98,1101.752 L 104.62098635444045,3.0099581266126734 A 1268.7180272911187,1268.7180272911187 0 0 1 182.81062342441612,-38.564209361681606 Z" fill="black"></path><path d="M 738.98,1101.752 L 243.2523734618557,-66.1091017840804 A 1268.7180272911187,1268.7180272911187 0 0 1 325.9258133283058,-97.84446200147363 Z" fill="black"></path><path d="M 738.98,1101.752 L 389.27391768011626,-117.8180425813789 A 1268.7180272911187,1268.7180272911187 0 0 1 475.1986897749311,-139.24149440253473 Z" fill="black"></path><path d="M 738.98,1101.752 L 540.5087741138163,-151.34600305830168 A 1268.7180272911187,1268.7180272911187 0 0 1 628.4039379940986,-162.13817216083112 Z" fill="black"></path><path d="M 738.98,1101.752 L 694.7023793901495,-166.19315854850697 A 1268.7180272911187,1268.7180272911187 0 0 1 783.2576206098495,-166.19315854850697 Z" fill="black"></path><path d="M 738.98,1101.752 L 849.5560620059005,-162.13817216083112 A 1268.7180272911187,1268.7180272911187 0 0 1 937.4512258861827,-151.34600305830168 Z" fill="black"></path><path d="M 738.98,1101.752 L 1002.761310225068,-139.24149440253495 A 1268.7180272911187,1268.7180272911187 0 0 1 1088.6860823198829,-117.81804258137936 Z" fill="black"></path><path d="M 738.98,1101.752 L 1152.0341866716933,-97.84446200147386 A 1268.7180272911187,1268.7180272911187 0 0 1 1234.7076265381434,-66.10910178408062 Z" fill="black"></path><path d="M 738.98,1101.752 L 1295.1493765755831,-38.56420936168183 A 1268.7180272911187,1268.7180272911187 0 0 1 1373.3390136455587,3.0099581266119912 Z" fill="black"></path><path d="M 738.98,1101.752 L 1429.9733620900029,37.71553148915905 A 1268.7180272911187,1268.7180272911187 0 0 1 1502.513568967625,88.5087311681616 Z" fill="black"></path><path d="M 738.98,1101.752 L 1554.496228128679,129.85760530876587 A 1268.7180272911187,1268.7180272911187 0 0 1 1620.3055974100014,189.11262756235863 Z" fill="black"></path><path d="M 738.98,1101.752 L 1666.8616255703307,236.488386005728 A 1268.7180272911187,1268.7180272911187 0 0 1 1724.9590911369473,303.32187493317406 Z" fill="black"></path><path d="M 738.98,1101.752 L 1765.3944451483726,356.0182542406801 A 1268.7180272911187,1268.7180272911187 0 0 1 1814.9139076035692,429.4338764584862 Z" fill="black"></path><path d="M 738.98,1101.752 L 1848.6257894718296,486.6652949893098 A 1268.7180272911187,1268.7180272911187 0 0 1 1888.8290276877174,565.5685926671371 Z" fill="black"></path></g>
        <!-- Vanishing Point -->
        <circle id="left-vp" cx="738.98" cy="1101.752" r="1" fill="blue"></circle>
    </g>

    <!-- Right Door Group -->
    <g id="right-door-group" class="door-group" transform="translate(1617.6943999999999, 67.18)" style="display: block;">
        <!-- Frame -->
        <rect id="right-door-frame" x="0" y="0" width="1477.96" height="886.776" fill="none" stroke="black" stroke-width="80.616"></rect>
        <!-- Sectors (Clipped) -->
        <g id="right-sectors-group" clip-path="url(#right-door-clip)"><path d="M 738.98,1101.752 L -424.5106484813409,595.8518678889909 A 1268.7180272911187,1268.7180272911187 0 0 1 -375.99111352616546,496.3720789787535 Z" fill="black"></path><path d="M 738.98,1101.752 L -342.7799473084988,438.8486517111397 A 1268.7180272911187,1268.7180272911187 0 0 1 -280.8876904267074,347.0896074050321 Z" fill="black"></path><path d="M 738.98,1101.752 L -239.99401924499887,294.7480951663489 A 1268.7180272911187,1268.7180272911187 0 0 1 -165.93370281539706,212.49578088742328 Z" fill="black"></path><path d="M 738.98,1101.752 L -118.15347546333692,166.35495167580893 A 1268.7180272911187,1268.7180272911187 0 0 1 -33.36659930286555,95.21031516088374 Z" fill="black"></path><path d="M 738.98,1101.752 L 20.37019644334123,56.16824773252711 A 1268.7180272911187,1268.7180272911187 0 0 1 114.23335223386073,-2.483961594458833 Z" fill="black"></path><path d="M 738.98,1101.752 L 172.8807907697137,-33.66735780675867 A 1268.7180272911187,1268.7180272911187 0 0 1 273.993286630576,-78.68554140715514 Z" fill="black"></path><path d="M 738.98,1101.752 L 336.4098622754468,-101.40331706671282 A 1268.7180272911187,1268.7180272911187 0 0 1 442.80365848847975,-131.9112472041627 Z" fill="black"></path><path d="M 738.98,1101.752 L 507.7745035952439,-145.72122664885205 A 1268.7180272911187,1268.7180272911187 0 0 1 617.3787659383102,-161.12510116548629 Z" fill="black"></path><path d="M 738.98,1101.752 L 683.6392969102053,-165.75848885403502 A 1268.7180272911187,1268.7180272911187 0 0 1 794.3207030897977,-165.75848885403502 Z" fill="black"></path><path d="M 738.98,1101.752 L 860.5812340616928,-161.12510116548606 A 1268.7180272911187,1268.7180272911187 0 0 1 970.1854964047591,-145.7212266488516 Z" fill="black"></path><path d="M 738.98,1101.752 L 1035.1563415115231,-131.911247204162 A 1268.7180272911187,1268.7180272911187 0 0 1 1141.550137724556,-101.4033170667119 Z" fill="black"></path><path d="M 738.98,1101.752 L 1203.966713369427,-78.685541407154 A 1268.7180272911187,1268.7180272911187 0 0 1 1305.079209230289,-33.66735780675731 Z" fill="black"></path><path d="M 738.98,1101.752 L 1363.7266477661417,-2.4839615944576963 A 1268.7180272911187,1268.7180272911187 0 0 1 1457.589803556661,56.1682477325287 Z" fill="black"></path><path d="M 738.98,1101.752 L 1511.3265993028676,95.21031516088533 A 1268.7180272911187,1268.7180272911187 0 0 1 1596.1134754633388,166.35495167581064 Z" fill="black"></path><path d="M 738.98,1101.752 L 1643.8937028153987,212.49578088742476 A 1268.7180272911187,1268.7180272911187 0 0 1 1717.9540192450004,294.7480951663506 Z" fill="black"></path><path d="M 738.98,1101.752 L 1758.8476904267086,347.08960740503346 A 1268.7180272911187,1268.7180272911187 0 0 1 1820.7399473084997,438.84865171114143 Z" fill="black"></path><path d="M 738.98,1101.752 L 1853.9511135261662,496.37207897875476 A 1268.7180272911187,1268.7180272911187 0 0 1 1902.4706484813416,595.8518678889924 Z" fill="black"></path></g>
        <!-- Vanishing Point -->
        <circle id="right-vp" cx="738.98" cy="1101.752" r="1" fill="blue"></circle>
    </g>
</svg>